<svg id="footer-left-img" xmlns="http://www.w3.org/2000/svg" width="268.534" height="545.521" viewBox="0 0 268.534 545.521">
  <path id="Path_9" data-name="Path 9" d="M0,0C85.745,5.408,0,193.693,0,193.693s40.177,9.6,45.866,47.644c.171,1.141,1.673.1,3.911,0,3.063-.132,8.292-.107,13.866,0,20.251.391,53.97-.834,70.043,0,20.978,1.088,41.177.077,58.31,0,28.5-.127,58.99,0,58.99,0s-53.791,22.921-70.9,15.839c-16.644-6.887,3.434-43.754-17.953-55.305C137.7,188.679,109.954,177.066,86.4,154.938c-21.4-20.1-31.629-50.81-45.51-75.376C29.609,59.6,20.886,41.553,13.155,27.3,6.383,14.807.048,5.013,0,0Z" transform="translate(258.534 294.534) rotate(90)"/>
  <path id="Path_10" data-name="Path 10" d="M991.628,376.608c85.745,5.408,0,193.693,0,193.693s40.177,9.6,45.866,47.644c.171,1.141,1.673.1,3.911,0,3.063-.132,8.292-.107,13.866,0,20.251.391,53.97-.834,70.043,0,20.978,1.088,41.177.077,58.31,0,28.5-.127,58.99,0,58.99,0s-53.791,22.921-70.9,15.839c-16.644-6.887,3.434-43.754-17.953-55.305-24.426-13.192-52.176-24.805-75.732-46.933-21.4-20.1-31.629-50.81-45.51-75.376-11.279-19.961-20-38.009-27.733-52.266C998.011,391.415,991.675,381.621,991.628,376.608Z" transform="translate(-974.08 -376.608)" fill="#a8dadc"/>
</svg>
