<svg xmlns="http://www.w3.org/2000/svg" xmlns:xlink="http://www.w3.org/1999/xlink" width="568.806" height="657.729" viewBox="0 0 568.806 657.729">
  <defs>
    <clipPath id="clip-path">
      <rect id="Rectangle_14" data-name="Rectangle 14" width="437" height="467" transform="translate(246.438 2262.532)" fill="#fff" stroke="#707070" stroke-width="1"/>
    </clipPath>
  </defs>
  <g id="Component_31_1" data-name="Component 31 – 1" transform="translate(0.991 0.508)">
    <g id="Component_30_1" data-name="Component 30 – 1" transform="translate(0 33.221)">
      <g id="Mask_Group_2" data-name="Mask Group 2" transform="translate(-225.438 -2105.532)" clip-path="url(#clip-path)">
        <g id="layer1" transform="translate(245.918 2287.193)">
          <g id="g4647" transform="translate(0 0)">
            <path id="path4645" d="M103.984,213.025l65.537,17.389,15.692,51.227,30-6.11L256.75,299.5l23.076,22.089.923,11.279-72.46,19.739-90-61.567Z" transform="translate(-45.831 -84.383)" fill="#e6e6e6"/>
            <path id="path4033" d="M601.825,984.243l6,10.1,9.692.47,6-9.4-6.923-7.285-4.154-1.88Z" transform="translate(-308.002 -617.746)" fill="#1a1a1a"/>
            <path id="path3987" d="M601.056,981.923c-.1,3.333,1.772,5.65,4.174,7.655,2.66,1.608,5.86,3.065,9.014,2.127a11.373,11.373,0,0,0,1.421-.646,7.161,7.161,0,0,0,3.057-6.962c-.644-2.776-2.662-4.391-4.874-5.891-1.679-.857-3.387-1.5-5.053-2.391a.077.077,0,1,1,.008-.154,14.293,14.293,0,0,1,2.133-.763,17.507,17.507,0,0,1,4.2.2,17.253,17.253,0,0,1,2,.56c3.371,1.4,5.387,4.614,6.115,8.116a20.036,20.036,0,0,1,.1,2.2,11.2,11.2,0,0,1-6.226,9.046,23.293,23.293,0,0,1-2.349.8c-4.347.974-8.631-.658-12.143-3.194-3.672-3.38-5.543-6.064-4.717-11.284a1.6,1.6,0,1,1,3.138.583Z" transform="translate(-306.559 -617.259)"/>
            <path id="path4116" d="M565.174,459.694c16.154-.084,31.39,6.08,46.529,11.051,3.02,7.056,9.794,14.17,18,12.765,11.839.674,24.856-4.507,35.684,2.535,14.369,7.038,31.539,11.882,47.041,5.714,5.169-1.428,16.729-9.677,18.469-1.523-3.2,6.929-10.84,11.154-18.229,11.159-6.259-3.231-8.836-12.544-16.8-12.365-7.818,1.47-16.511,3.7-23.767-.966-8.908-3.951-18.843-8.664-28.7-5.485-15.2,2.688-32.1-1.131-42.96-12.794-9.285-6.987-21.332-4.165-31.957-3.792-2.362-.247-5.333-1.738-5.141-4.585" transform="translate(-294.454 -442.052)" stroke="#000" stroke-width="2.849"/>
            <path id="path4118" d="M598.231,460.385c11.981.588,21.924,8.144,32.635,12.722,5.507,6.254-6,12.832-1.581,19.237,6.965,6.82,16.815,8.89,25.44,12.643,9.937,2.329,20.46-.888,28.649-6.749,9.87-3,18.412,4.5,26.686,8.688,2,1.772,11.342,1.791,9.728,3.135-10.122.409-20.718.941-30.241-3.215-4.309-5.878-8.891-16.4-17.888-12.821-10.551,2.946-21.456,9.948-32.626,5.562-6.572-2.311-14.645-7.189-14.1-15.323,2.122-6.315.808-15.839-6.652-17.555-8.139-.972-16.516-2.751-23.574-7.217l.014-.361s0,0,0,0" transform="translate(-305.497 -441.859)" stroke="#000" stroke-width="2.849"/>
            <path id="path4043" d="M408.777,723.957l-23.5,10.635-5.548,4.653,3.916,1.994,13.706-1.662-10.769,4.985-1.958,9.305,19.908-2.991,12.4-9.97s3.263-3.988,2.611-5.317-10.769-11.631-10.769-11.631Z" transform="translate(-229.828 -531.934)" fill="#f95"/>
            <path id="path4045" d="M463.156,749.451l-12.728,10.3-10.443,4.32-.326,1.994,10.443,1.994-9.138,11.3,10.117-1.329,13.054-4.985s-7.832,7.976-4.569,7.311,29.045-6.314,29.045-6.314l15.338-4.32-2.284-23.595Z" transform="translate(-250.921 -539.475)" fill="#f95"/>
            <path id="path3905" d="M498.429,747.709c-4.757.1-9.476.785-14.231,1.046-5.148.2-10.3.29-15.445.59-2.166.15-4.411.248-6.343,1.344a15.853,15.853,0,0,0-3.2,2.919c-.747.9-1.451,1.843-2.21,2.736a12.612,12.612,0,0,1-1.451,1.293,5.617,5.617,0,0,1-1.425.787c-1.1.453-2.181.936-3.274,1.4a62.944,62.944,0,0,1-6.76,2.562c-1.914.494-3.794,1.112-5.66,1.765-.221-.161-1.586.812-1.176,1.047,1.287.114,2.7.481,4.04.618a27.706,27.706,0,0,0,9.889-.243,34.391,34.391,0,0,0,7.443-3.224,28.852,28.852,0,0,1,3.569-1.8,4.7,4.7,0,0,1,2.714-.172c1.716.644,1.961,1.948,1.242,3.543-1.343,1.748-3.5,2.39-5.486,3.056-3.256.968-6.456,2.094-9.616,3.35a34.8,34.8,0,0,0-7.483,4.187,13.759,13.759,0,0,0-3.173,3.753c-.714,1.341-.007,1.291-.546.186a26.076,26.076,0,0,0,6.046-.907,84.57,84.57,0,0,0,9.475-3.107,27.792,27.792,0,0,0,5.686-2.726,7.379,7.379,0,0,1,2.7-1.337,11.777,11.777,0,0,1,.989,2.334c.045.243-.287.4-.446.587-.886,1.039-1.925,1.954-2.841,2.969a42.261,42.261,0,0,0-3.91,4.48c-.164.389.082-.177.069-.323-.083-.979-.633-.458,1.132-.784a76.828,76.828,0,0,0,7.7-2.744,65.5,65.5,0,0,1,11.018-3.544,101.812,101.812,0,0,1,12.16-1.779c1.446.129,2.927-.536,4.365-.441a4.664,4.664,0,0,0,2.323.3.067.067,0,1,1,.045.127,17.7,17.7,0,0,1-1.941,1.641c-1.306.748-3.055.616-4.431,1.137-3.978.658-7.981,1.117-11.967,1.72a48.544,48.544,0,0,0-10.685,3.211A66.152,66.152,0,0,1,459.16,782c-1.93.339-4.8.309-3.593-2.644a34.615,34.615,0,0,1,4.109-4.84,27.058,27.058,0,0,0,2.131-2.382c.43-.551.537-.74.55-.726a17.428,17.428,0,0,1,1.3,1.742c1.339-.413-1.444.511-1.514.659q-2.942,1.451-5.872,2.927a64.582,64.582,0,0,1-9.79,3.4c-2.424.581-4.917,1.2-7.4.607-1.815-1.084-1.246-1.893-.7-3.521a13.809,13.809,0,0,1,3.629-4.692,30.276,30.276,0,0,1,7.882-5.007,69.9,69.9,0,0,1,9.787-3.614,15.5,15.5,0,0,0,3.93-1.688c.247.269.3.689.755.651a4.153,4.153,0,0,0-1.274.209,25.2,25.2,0,0,0-3.244,1.629,35.878,35.878,0,0,1-8.125,3.448,27.025,27.025,0,0,1-10.876.345c-2.076-.493-4.943-.89-5.452-3.393a3.217,3.217,0,0,1,2.469-2.693,42.91,42.91,0,0,0,5.512-2.08c2.2-.889,4.412-1.742,6.6-2.67,1.1-.465,2.212-.891,3.323-1.322a6.95,6.95,0,0,0,1.064-.5,3.465,3.465,0,0,0,1.1-.92c.8-.86,1.518-1.781,2.262-2.689a16.143,16.143,0,0,1,3.8-3.258,14.241,14.241,0,0,1,7.186-1.385,146.615,146.615,0,0,0,15.363-.778c4.75-.426,9.52-.57,14.254-1.131a1.017,1.017,0,1,1,.112,2.029Z" transform="translate(-249.42 -539.322)" fill="#2b1100"/>
            <path id="path4041" d="M477.888,546.892c-.462,2.35,6.923,16.449,6.923,16.449l31.845,27.729,36.461-17.859,4.154-47.938s-9.23-14.1-11.077-14.1-66,36.658-66,36.658v1.41" transform="translate(-264.37 -459.561)" fill="#f95"/>
            <path id="path4035" d="M693.582,989.429l-4.154,8.93,3.231,9.87,7.154,4.465,11.307-.7,1.615-9.634-4.385-9.4-5.538-2.585-5.769,1.175Z" transform="translate(-338.837 -622.228)" fill="#1a1a1a"/>
            <path id="path4037" d="M707.656,958.775l-1.846,3.76,1.385,5.64,6.461,1.645,9-1.175-.692-8.225-5.077-4.465-7.615,1.41Z" transform="translate(-344.603 -610.842)" fill="#1a1a1a"/>
            <path id="path4039" d="M615.107,938.506l-.462,7.05,4.385,4.465H630.8l-7.615-6.58Z" transform="translate(-312.514 -604.907)" fill="#1a1a1a"/>
            <path id="path4031" d="M630.547,907.61l.653,20.272-22.192-11.3-1.305,7.976,16.97,13.626s-26.435,1.994-26.76,3.656-1.632,17.946-1.632,17.946,9.791,2.326,10.443.332,4.243-10.635,4.243-10.635l25.455-6.314,33.941,20.937-.326-10.966-14.686-11.3,16.643-.665-1.632-12.628L642.949,932.2l-3.264-24.924Z" transform="translate(-306.05 -594.286)" fill="gray"/>
            <path id="path4029" d="M559.737,757.665s6.345-13.891,9.282-13.891,35.665-2.35,35.665-2.35c-23.729-6.315,36.14-9.582,56.286-18.839l7.767-82.232s-54.174-98.7-51.237-98.7,42.426,4.32,42.426,4.32c15.841-3.443,26.451.574,38.183,2.991,20.038,49.237,7.388,114.326,2.937,165.827-13.538,52.608-49.683,66.849-91.7,71.117-18.891-.713-40.531,4.57-53.848-8.308Z" transform="translate(-291.694 -469.927)" fill="#d40000"/>
            <path id="path4017" d="M355.483,704.656l11.02-.47,24.461,13.159c-11.618-.64-17.3-.2-29.37,3.614-.877.277-2.657-6.025-6.112-16.3Z" transform="translate(-221.292 -525.209)" fill="#f60" stroke="#2b0000" stroke-width="4.273"/>
            <path id="path3806" d="M557.5,569.678c4.475-10.74,21.157-.565,5.071,2.542A4.313,4.313,0,0,1,557.5,569.678Z" transform="translate(-292.399 -477.826)" fill="#fff"/>
            <path id="path3999" d="M468.106,438.6c-13.855,6.583-21.919,12.984-28.384,34.778-1,0,6.661,39.587,21.016,52.97,8.558,7.978,64.742-11.37,63.364-21.894,7.04,8.24,11.019,13.268,5.618,32.841-29.421,18.907-37.892-6.07-47.369,13.962,2.325,5.1,18.991,19.9,14.106,27.453-21,15.463-67.936,32.849-70.637,43.8,3.886,6.088,4.32,8.468,11.786,18.4,20.751-5.135,36.326-14.752,59.178-18.135,2.311,3.943,9.756,8.564,6.405,13.33l-8.895,3.532.811,20.793,6.349,4.035c.864,5.64-8.838,9.95-18.461,16.919L449.875,704.6c5.629,20.322,15.372,42.215,14.769,60.157l-19.823,13.492c-1.627,5.289-.618,9.62,9.846,10.511,12.25-2.442,27.766-5.276,33.276-11.783l4.662,13.653-18.461,12.219c-9.711,5.013-7.737,11.356-10.48,16.368,30.123,2.467,61.455-11.686,62.666-17.526-4.1-34.75-12.812-48.426-19.218-72.649,1.57-6.448,7.824-9.808,14.61-11.83,0,0,23.347-3.817,27.962-2.877s70.623-19.259,72.81-24.771c15.553-39.2,1.035-85.241,1.035-85.241,1.286-8.211-2.582-21.181-6.512-38.243-15.526-23.753-30.664-51.03-46.984-67.479-33.018-57.694-69.072-72.188-101.924-60Z" transform="translate(-246.051 -433.52)"/>
            <path id="path4027" d="M568.579,788.73,597.3,776.1l90.073-22.93,11.422,1-59.4,23.595-49.279,13.625,4.242,49.516s-8.812,7.311-9.791,4.32-2.937-52.507-2.937-52.507Z" transform="translate(-296.3 -541.871)" fill="gray"/>
            <path id="path3938" d="M564.18,566.713c-1.033-.167-7.874,5.119-7.7,5.511.753,1.732,9.2.417,10.642-.917,1.869-1.735,2.2-5.5-2.939-4.594Z" transform="translate(-292.039 -478.404)" fill="#fff"/>
            <path id="path3891" d="M575.793,500.954c-1.722-3.943-3.04-8.048-4.634-12.045-2.945-7.143-8.13-12.906-13.21-18.536a213.973,213.973,0,0,0-29.863-25.922c-7.321-5.108-2.661-1.044-11.036-4.121-5.111-1.878-6.453-2.009-11.7-3.2-6.969-1.134-10.827-.235-19.907.589-12.868,1.53-28.2,16.038-32.722,25.267-.928,1.99-.732,4.343-1.1,6.514-1.35,15.719,1.11,24.679,7.126,38.731.744,1.487,5.8,11.643,6.635,13.122,1.17,2.078,2.508,4.052,3.761,6.078a.065.065,0,1,1-.1.077c-4.614-5.753-9.471-11.373-12.856-18.014-1.185-2.273-2.481-4.49-3.555-6.82-5.394-11.7-5.943-16.557-4.872-29.486.411-2.331-1.5-5.4,1.56-11.313,6.572-15.99,22.3-26.125,35.217-27.751,9.7-1.015,13.985-1.762,21.583-.495,2.042.463,4.107.831,6.126,1.388,10.962,3.023,8.585.038,17.9,6.533,10.8,7.957,21.264,16.448,30.49,26.291,5.453,5.933,10.857,12.035,14.209,19.509,1.649,3.93,3.038,7.956,4.513,11.956a1.969,1.969,0,1,1-3.564,1.653Z" transform="translate(-253.613 -432.958)"/>
            <path id="path3747" d="M552.375,571.176c1.037-1.117,2.079-2.227,3.189-3.271a15.411,15.411,0,0,1,4.495-3.133,8.187,8.187,0,0,1,4.551-.314c.964.362,1.511.637,1.661,1.717a.039.039,0,1,1-.023.075,2.457,2.457,0,0,1-1.917.92,9.278,9.278,0,0,0-3.157.249,12.882,12.882,0,0,0-3.7,2.539q-1.578,1.562-3.081,3.2a1.416,1.416,0,1,1-2.015-1.981Z" transform="translate(-290.434 -477.622)" fill="#5f0000"/>
            <path id="path3893" d="M479.843,560.7c5.961-1.842,12-3.411,17.986-5.163a264.061,264.061,0,0,0,25.578-9.416c5.312-2.178,10.34-5.172,15.938-6.546,4.663-.468,6.93,2.222,9.146,5.973,2.792,5.553,3.965,11.7,4.629,17.852.584,6.394-.024,12.922-3.5,18.463-.691,1.1-1.569,2.07-2.353,3.105-.962.92-1.848,1.931-2.886,2.761-4.165,3.334-10.194,5.606-15.365,6.62-1.352.265-2.733.343-4.1.515a.7.7,0,1,1-.291-1.37c1.226-.4,6.392-2.044,7.583-2.512a36.4,36.4,0,0,0,12.36-8.138c.666-.876,1.4-1.7,2-2.629,3.116-4.855,3.977-10.853,3.942-16.534-.2-2.021-.409-4.622-.8-6.627a43.683,43.683,0,0,0-3.428-10.2c-1.483-2.7-3.022-5.3-6.439-4.956-5.513,1.1-10.452,4.043-15.569,6.277a175.192,175.192,0,0,1-25.718,9.964c-5.989,1.732-12.02,3.3-18.062,4.831a1.183,1.183,0,1,1-.654-2.271Z" transform="translate(-264.747 -469.202)"/>
            <path id="path3901" d="M649.132,528.481c4.377,4.974,7.91,10.667,11.561,16.2,5.325,8.172,10.925,16.155,16.539,24.123a183.554,183.554,0,0,1,14.438,22.423,102.923,102.923,0,0,1,6.509,16.853,75.324,75.324,0,0,1,2.308,12.152,43.34,43.34,0,0,1-.119,9.5,54.134,54.134,0,0,1-1.252,7.993,38.774,38.774,0,0,1-2.216,7.257,51.308,51.308,0,0,1-4.687,7.272c-.843,1.356-1.157,2.278-2.53,3.126a.067.067,0,1,1-.121-.057c-.262-1.843.32-2.5,1.267-4.041A40.157,40.157,0,0,0,695.1,644.2a36.822,36.822,0,0,0,2.145-6.91,44.754,44.754,0,0,0,1.377-7.647c-.039-3.091-.146-6.18-.118-9.273a40.206,40.206,0,0,0-1.774-11.843,68.4,68.4,0,0,0-6.882-16.236c-4.524-7.574-9.665-14.726-14.773-21.9-5.72-7.942-11.465-15.872-16.749-24.126-3.5-5.512-6.923-11.091-10.957-16.228a1.177,1.177,0,1,1,1.758-1.558Z" transform="translate(-323.915 -465.288)"/>
            <path id="path4001" d="M152.972,718.319l68.533-9.97,1.305,24.592,89.777,61.276,74.7-19.4L413.4,790.1l3.916,31.238L414.7,824l-4.569,85.74-6.527,4.653-5.874-87.733c-30.513,3.3-61.414-.155-91.378,12.628l7.18,86.4c-2.271,11.414-12.29,11.98-18.928,17.281,2-40.585-5.22-105.35-3.264-112.324L166.676,762.852c-6.3-1.167,6.22,79.425,3.916,85.075-5.812,14.253-10.1,13.837-10.1,13.837-2.022-35.786-11.571-73.1-6.066-107.361Z" transform="translate(-149.93 -526.625)" fill="#784421"/>
            <path id="path3907" d="M484.233,666.54c-3.134,3.5-7.368,5.511-11.525,7.443-6.862,2.992-13.646,6.14-20.313,9.558-5.034,2.672-10.26,4.933-15.412,7.352a44.778,44.778,0,0,0-5.935,3.273c-.7.631-1.711.932-2.331,1.656-.081.162,0,.309,0,.479a1.612,1.612,0,0,1,.03.214,2.749,2.749,0,0,1-.812,1.822,7.5,7.5,0,0,0-.841,1.17,7.3,7.3,0,0,1-.918.846c-.332.192-.693.176-1,.421-.613.382.906-.491,1.343-.765.384-.24.121-.491.559.242,1.446,2.414,2.917,4.805,4.253,7.286,1.35,2.637,2.616,5.316,3.957,7.958a2.363,2.363,0,0,1,.479,1.7c-.019.156.108.371-.011.472a6.258,6.258,0,0,1-1.326.666l-.417-.282a.066.066,0,1,1,0-.132l.231-.281a6.609,6.609,0,0,0-.825.527c-.062.054.017.209-.058.243-.472.218-.911-1.2-1.036-1.352-1.325-2.611-2.626-5.235-3.977-7.833-1.377-2.5-2.874-4.925-4.28-7.407-.862-1.959-.788-2.255,1.041-3.5-.091.213-.2.194-.417.241-.25.157.135-.576.2-.677a12.269,12.269,0,0,1,1.114-1.141c.142-.187.316-.53.255-.072a2.186,2.186,0,0,1,0-.5,3.6,3.6,0,0,1,.748-1.922,12.016,12.016,0,0,1,2.72-2.188,67.509,67.509,0,0,1,6.157-3.458c5.048-2.614,9.94-5.507,14.943-8.206,6.676-3.437,13.5-6.541,20.316-9.667,3.551-1.88,7.277-3.752,10.043-6.774a2,2,0,1,1,3.041,2.593Z" transform="translate(-245.248 -511.241)"/>
            <path id="path3909" d="M407.424,724.274c-3.433.958-6.817,2.079-10.185,3.248a75.757,75.757,0,0,0-12.677,5.572c-1.849,1.377-4.48,2.575-5.479,4.835.294.2,0-.483.29-.486.98-.01,2.056.2,3.041.241,3.46-.177,6.887-.706,10.325-1.109,1.533-.1,3.041-.4,4.559-.612,2.527.239,1.928,2.425.433,3.585a28.921,28.921,0,0,1-4.211,2.184c-2.063.839-4.12,1.685-6.135,2.64-.624.475-1.846.618-2.224,1.4-.117.247,0,.018.028.127a3.079,3.079,0,0,1-.011,2.318c-.4,1.176-.9,2.317-1.34,3.48l-.13.432c.016,0,.048.032.048.015a2.337,2.337,0,0,0-.049-.538c-.027-.113-.217-.211-.157-.31.006-.009,1.16-.108,1.23-.115a83.888,83.888,0,0,0,9.484-1.752c2.608-.679,5.244-1.3,7.793-2.187a13.808,13.808,0,0,0,4.084-2.622c1.608-1.338,3.272-2.6,4.879-3.942.964-.681,1.6-1.771,2.554-2.451a3.313,3.313,0,0,1,2.059-.8c.373.014.967-.342.467-.651a1.014,1.014,0,0,0-.787.985c.521-2.029,2.326-2.154,4.052-2.387a64.167,64.167,0,0,0,10.454-1.926c5.535-1.6,10.813-3.978,16.166-6.1,5.436-2.175,11-4,16.545-5.851,3.056-1.029,6.13-2,9.234-2.867a26.565,26.565,0,0,1,4.369-.808,18.979,18.979,0,0,1,2.8-.023c1.517.245,2.588,1.349,3.682,2.35,1.91,1.518,3.03,3.5,4.332,5.5.052,1.783-.282,1.109.663,2.161a.067.067,0,1,1-.091.1c-1.108-.911-.413-.575-2.21-.681a37,37,0,0,1-5.16-4.332,17.473,17.473,0,0,0-1.614-1.417,10.542,10.542,0,0,0-2.06.01,17.586,17.586,0,0,0-3.709.821c-3.04.869-6.043,1.857-9.03,2.9-5.469,1.868-10.956,3.69-16.345,5.79-5.489,2.214-10.909,4.648-16.567,6.389a62.676,62.676,0,0,1-10.941,2.016c-2.4.317-1.184.589-.629-1.266a2.146,2.146,0,0,1-1.268,1.909,20.128,20.128,0,0,1-2.2,0c-.6.036.052-.311-.251.08a19.886,19.886,0,0,1-2.709,2.75c-1.61,1.412-3.3,2.714-5.025,3.978a14.841,14.841,0,0,1-5.034,2.79c-2.658.723-5.306,1.49-7.989,2.114-3.248.765-6.5,1.515-9.784,2.123-2.151.176-4.655-.1-3.716-3.045.325-1.151.775-2.255,1.184-3.377.108-.373.114-.741.2-1.118a3.54,3.54,0,0,1,.372-1.978,7.506,7.506,0,0,1,3.179-2.549c2.011-.951,4.061-1.808,6.023-2.864,1.241-.661,2.509-1.267,3.752-1.921.047-.024.089-.07.142-.073.157-.009-.129.31-.1.467.091.547.427,1.633,1.231,1.3-1.325-.461-2.939.177-4.283.1-3.516.366-7.02.883-10.552,1.051-2.153.1-6.1.267-5.344-3.058,1.46-2.511,3.981-4.109,6.279-5.744A70.016,70.016,0,0,1,396,724.073a102.782,102.782,0,0,1,10.355-3.474,1.916,1.916,0,1,1,1.069,3.675Z" transform="translate(-228.863 -529.826)"/>
            <path id="path3913" d="M324.424,650.489c2.224,8.027,4.478,16.043,6.833,24.033,6,19.667,11.183,39.569,16.084,59.544,2.5,11.276,1.474,5.815,3.143,16.366a.14.14,0,1,1-.27.067c-3.3-10.123-1.687-4.823-4.79-15.916q-8.164-29.7-17.187-59.144c-2.341-8.039-5.336-16.372-5.891-24.784a1.045,1.045,0,1,1,2.078-.166Z" transform="translate(-209.628 -506.591)" fill="#1a1a1a"/>
            <path id="path3917" d="M261.491,728.895c.011,2.571.169,5.139.32,7.7.17,1.216.087,2.67.878,3.683a36.8,36.8,0,0,0,6.13,3.873,171.337,171.337,0,0,1,19.867,12.573c7.556,5.666,15.2,11.2,23.012,16.494,5.942,4.009,12.005,7.827,18.012,11.734a148.239,148.239,0,0,1,12.637,9.186c1.2,1.276,3.655,2.536,4.529,4.1a4.893,4.893,0,0,1,.3.929.067.067,0,1,1-.063.119,4.194,4.194,0,0,1-1.021.2c-1.694-.1-4.043-2.2-5.473-2.982-4.161-3.027-8.163-6.277-12.406-9.187-5.981-3.98-12.1-7.742-18-11.851-7.762-5.4-15.4-10.98-23-16.618a156.828,156.828,0,0,0-19.554-12.569c-2.387-1.358-5.025-2.629-6.79-4.826a12.155,12.155,0,0,1-1.2-4.656,68.927,68.927,0,0,1-.443-7.909,1.137,1.137,0,1,1,2.267,0Z" transform="translate(-187.411 -533.197)" fill="#1a1a1a"/>
            <path id="path3919" d="M375.9,802.71c4.055-.4,8.122-.508,12.194-.624a175.83,175.83,0,0,0,18.579-1.742,130.938,130.938,0,0,0,18.343-4.211c4.71-1.474,9.494-2.68,14.284-3.844,3.227-.744,6.495-1.283,9.754-1.859a31.242,31.242,0,0,1,7.681-.5c1.261.1,2.522-.127,3.78-.084.438.019.846.084,1.118-.317,1.936-.164,2.126,1.939,2.286,3.4.246,2.423.428,4.852.64,7.278.2,2.305.676,3.227-.84,5.216-2.763,1.914-6.32,1.825-9.52,2.236a242.742,242.742,0,0,0-25.9,5.719c-9.139,2.7-18.221,5.577-27.6,7.287a16.784,16.784,0,0,1-7.954.006.068.068,0,1,1-.013-.135,31.26,31.26,0,0,1,7.458-2.293c9.194-2.341,18.238-5.225,27.422-7.6,8.658-2.12,17.334-4.2,26.109-5.757,2.491-.581,4.973-1.227,7.407-2.013a8.238,8.238,0,0,0-.1-2.325c-.239-2.428-.454-4.858-.584-7.294-.14-2.173-.174-.337,1.183-.7-.254-.4-.633-.337-1.059-.3-1.225.1-2.466-.028-3.685.189-2.432.4-4.849.881-7.287,1.242-3.2.536-6.4,1.05-9.567,1.781-4.757,1.106-9.41,2.584-14.1,3.941a118.125,118.125,0,0,1-18.831,4.157c-6.284.821-12.591,1.495-18.927,1.7a91.552,91.552,0,0,1-12.284-.558,1,1,0,1,1,.018-1.987Z" transform="translate(-228.111 -554.234)" fill="#1a1a1a"/>
            <path id="path3921" d="M464.526,755.682a54.393,54.393,0,0,1-7.324-4.047.587.587,0,1,1,.462-1.079A33.941,33.941,0,0,1,465.5,753.6a1.149,1.149,0,1,1-.975,2.078Z" transform="translate(-256.962 -540.96)" fill="#1a1a1a"/>
            <path id="path3923" d="M392.965,724.218c-2.334,0-4.672.07-7.005-.018-.98.007-1.954-.111-2.932-.142a14.021,14.021,0,0,0-2.059.247c-2.025.57-4.094.966-6.163,1.333-4.542.575-9.022,1.53-13.537,2.276-.528-.534.346.187-.418-1.79,4.391-1.413,8.87-2.489,13.344-3.6a51.306,51.306,0,0,1,6.373-1.232,9.189,9.189,0,0,1,2.6.083c.955.073,1.913.091,2.87.139,2.3.055,4.6.172,6.9.094a1.3,1.3,0,1,1,.023,2.6Z" transform="translate(-223.182 -531.011)" fill="#1a1a1a"/>
            <path id="path3925" d="M328.739,650.17a22.735,22.735,0,0,1,5.855,1.533c1.413.976,1.709,2.706,2.233,4.249q2.386,6.577,4.834,13.132c2.47,7.233,4.653,14.564,6.979,21.846,1.963,6.17,4.146,12.263,6.142,18.423a111.937,111.937,0,0,1,3.492,13.482c.707,3.294,1.355,6.6,2.012,9.9.445,2.755.953,5.5,1.382,8.256a39.045,39.045,0,0,1,.415,6.9c-.125,1.631.242,3.259-.066,4.87l-.279.762a.158.158,0,1,1-.314.03l-.412-.686A21.241,21.241,0,0,1,360,748c-.215-2.208-.418-4.419-.71-6.618a48.073,48.073,0,0,0-1.83-7.974c-.839-3.273-1.564-6.573-2.259-9.881-.987-4.423-2.2-8.793-3.569-13.11-2.012-6.162-4.152-12.28-6.167-18.44q-3.447-10.923-6.76-21.89c-1.259-4.5-2.668-8.935-4.275-13.315a21.566,21.566,0,0,0-1.045-3.082c-1.381-1.218-3.321-1.321-5.023-1.778a.891.891,0,1,1,.375-1.74Z" transform="translate(-211.487 -506.827)" fill="#1a1a1a"/>
            <path id="path3927" d="M379.466,780.056a107.57,107.57,0,0,1,13.583,8.772,28.508,28.508,0,0,1,4.655,3.794.586.586,0,1,1-.624.991,25.876,25.876,0,0,1-5.311-2.786c-4.591-2.71-9.053-5.632-13.584-8.442a1.331,1.331,0,1,1,1.281-2.329Z" transform="translate(-229.021 -550.942)" fill="#1a1a1a"/>
            <path id="path3929" d="M389.771,770.841c4.026,3.765,8.133,7.44,12.02,11.355,1,1.646,2.693,2.662,3.853,4.157a18.37,18.37,0,0,1,1.19,2.024.31.31,0,1,1-.4.472,16.757,16.757,0,0,1-2.153-.925c-1.61-.979-2.79-2.6-4.524-3.405a122.175,122.175,0,0,1-12.272-11.377,1.625,1.625,0,1,1,2.288-2.3Z" transform="translate(-232.366 -547.687)" fill="#1a1a1a"/>
            <path id="path3931" d="M403.973,774.2a129,129,0,0,1,10.982,8.889c2.355,1.968,1.347.883,3.071,3.211a.183.183,0,1,1-.2.308c-2.846-.686-1.454-.141-4.147-1.709a62.308,62.308,0,0,1-11.475-8.421,1.443,1.443,0,1,1,1.764-2.278Z" transform="translate(-237.522 -548.897)" fill="#1a1a1a"/>
            <path id="path3933" d="M416.187,770.5a64.246,64.246,0,0,1,7.121,5.667c5.446,5.3-1.754-1.263,3.271,3.256l.975,1.737a.083.083,0,1,1-.089.141l-2.023-.222c-1.378-.768-2.823-1.414-4.17-2.237a64.167,64.167,0,0,1-7.1-5.581,1.712,1.712,0,1,1,2.017-2.761Z" transform="translate(-241.678 -547.624)" fill="#1a1a1a"/>
            <path id="path3935" d="M428.106,761.609c.49.846,1.364,1.387,1.884,2.205a12.415,12.415,0,0,1,.716,1.581.284.284,0,1,1-.373.429,10.944,10.944,0,0,1-1.664-.564c-.848-.45-1.425-1.33-2.289-1.763a1.281,1.281,0,1,1,1.726-1.888Z" transform="translate(-246.083 -544.602)" fill="#1a1a1a"/>
            <path id="path3937" d="M381.872,778.253c6.22-.771,12.342-2.173,18.457-3.532,1.456-.3,2.908-.619,4.367-.9,1.41-.274,2.829-.495,4.239-.77,4.19-.817,7.611-1.806,11.908-1.846a.066.066,0,1,1,.033.127c-3.69,2.075-7.277,3.026-11.245,4.406-1.367.475-2.715,1.006-4.087,1.467-1.429.48-2.876.9-4.314,1.354-6.317,1.673-12.772,3.418-19.358,3.042a1.674,1.674,0,1,1,0-3.345Z" transform="translate(-229.968 -548.002)" fill="#1a1a1a"/>
            <path id="path3939" d="M399.922,795.954c5.2-1.639,10.671-1.727,16.059-2.044a.817.817,0,1,1,.271,1.61c-5.183,1.528-10.342,3.375-15.757,3.818a1.718,1.718,0,1,1-.573-3.385Z" transform="translate(-236.406 -555.721)" fill="#1a1a1a"/>
            <path id="path3941" d="M732.413,660.242c-.336-3.467-.615-6.938-.99-10.4-.75-5.261-1.122-10.557-1.369-15.864q-.274-9.289-.936-18.556c-.518-6.325-1.054-12.648-1.771-18.952a107.983,107.983,0,0,0-3.8-17.229c-1.57-5.518-3.14-11.036-5.155-16.405-1.519-3.889-3.193-7.711-4.482-11.688-.66-2.334-1.6-5.092.225-7.181a9.24,9.24,0,0,1,1.369-1.073c4.079-1.811,8.673-1.509,13.017-1.283a153.557,153.557,0,0,1,17.773,2.464c4.438,1.056,8.605,3.085,11.213,7.043.522.793.912,1.668,1.368,2.5,2.8,6.915,3.3,14.488,3.92,21.861.854,11.323,1.174,22.677,1.561,34.023q.685,17.786.362,35.587c-.231,10.158-.453,20.318-1.01,30.464a218.52,218.52,0,0,1-3.555,26.827,207.468,207.468,0,0,1-5.827,24.707,128.969,128.969,0,0,1-7.1,17.353,29.9,29.9,0,0,1-8.707,10.84c-.337.2-3.576,2.175-4.028,2.306a13.731,13.731,0,0,1-2.254.145c-.583.068-1.155.211-1.732.317a.074.074,0,1,1-.046-.14c2.879-1.517.139.229,2.618-2.523.944-1.047,2.383-1.561,3.127-2.836a38.591,38.591,0,0,0,2.951-2.97,35.532,35.532,0,0,0,4.113-7.1,135.926,135.926,0,0,0,6.851-16.713,195.335,195.335,0,0,0,5.61-24.208,210.532,210.532,0,0,0,3.507-26.249c.514-10.092.743-20.2,1-30.3.2-11.794.091-23.589-.121-35.384-.256-11.271-.59-22.545-1.421-33.789-.573-6.808-.965-13.81-3.444-20.234-2.443-4.831-4.64-6.067-9.781-7.46a149.629,149.629,0,0,0-17.175-2.36,35.347,35.347,0,0,0-10.637.505c-.182.033-.4-.079-.555.028-.584.411.416,3.087.513,3.594,1.25,3.929,2.895,7.7,4.406,11.528,2.006,5.485,3.608,11.1,5.175,16.729a104.944,104.944,0,0,1,3.953,17.865c.68,6.356,1.077,12.739,1.589,19.111.476,6.214.772,12.437.924,18.667.219,5.223.563,10.442,1.161,15.635a53.966,53.966,0,0,1,.557,10.735,1.492,1.492,0,1,1-2.974.059Z" transform="translate(-347.161 -469.855)" fill="#500"/>
            <path id="path3943" d="M705.773,550.568c-3.846-.6-7.677-1.255-11.545-1.706-5.591-.8-11.258-1.026-16.818-2.015a.071.071,0,1,1-.012-.141c.889-.317,1.759-.7,2.667-.951,4.722-1.322,9.75-1.334,14.594-1.044q5.858.585,11.644,1.673a2.111,2.111,0,1,1-.533,4.184Z" transform="translate(-334.579 -470.916)" fill="#500"/>
            <path id="path3945" d="M687.687,755.609c-5.509,2.01-11.161,3.563-16.817,5.072-10.533,2.743-21.168,5.047-31.784,7.433-11.744,2.678-23.594,4.822-35.331,7.531a115.62,115.62,0,0,0-26.658,9.738c-.9.5-1.817.98-2.71,1.5a40.915,40.915,0,0,0-3.666,2.387,6.551,6.551,0,0,0-1.525,1.375c-.05.089.17-.11.254-.164,1.7-.049-.364-1.345.079-1.674.175-.13.428.076.642.108.476.07.951.155,1.43.2a29.361,29.361,0,0,0,4.79.01c9.853-.671,19.5-2.959,29.06-5.355,13.347-3.663,26.611-7.645,39.874-11.614,10.174-3,20.26-6.31,30.16-10.149,5.476-2.078,10.657-4.839,15.9-7.442,2.252-1.059,4.566-2.183,7.04-1.4a.067.067,0,1,1,.074.112,5.454,5.454,0,0,1-.188,1.1c-.826,2.09-3.264,3.053-4.98,4.14a165.219,165.219,0,0,1-16.288,7.672c-10.017,3.846-20.19,7.249-30.458,10.332-13.329,3.975-26.644,8.005-40.057,11.677-9.872,2.493-19.833,4.841-30.014,5.513-2.633.055-9.426.542-10.94-2.557a7.082,7.082,0,0,1-.283-2.253,10.877,10.877,0,0,1,.707-1.4,13.374,13.374,0,0,1,2.23-1.971,61.918,61.918,0,0,1,6.886-4.22,126.078,126.078,0,0,1,27.621-10.124c11.719-2.855,23.5-5.421,35.276-8.032,10.563-2.375,21.138-4.7,31.69-7.12,5.615-1.43,11.172-3.06,16.74-4.663a2.211,2.211,0,1,1,1.245,4.239Z" transform="translate(-295.143 -541.215)" fill="#333"/>
            <path id="path3947" d="M589.529,815.757a113.663,113.663,0,0,1,1.719,17.369c.345,8.563.454,17.134.5,25.7a58.645,58.645,0,0,0,.082,6.148c.042.331.432,1.151.193.635a17.884,17.884,0,0,0,4.7-1.974c1.748-.966,1.906-1.729,2.008-3.594.286-4.65-.554-9.292-1.218-13.876-1.271-7.749-2.333-15.531-2.906-23.367.234-2.632-.572-5.454-.034-8.076a10.527,10.527,0,0,1,.712-1.761.076.076,0,1,1,.151-.014,10.736,10.736,0,0,1,1,1.593c1,2.457.779,5.352,1.58,7.859,1.181,7.718,2.149,15.468,3.391,23.177.736,5.019,1.67,10.181.869,15.248-.931,3-1.809,3.636-4.6,4.805-2.022.9-3.99,2.165-6.2,2.421a5.7,5.7,0,0,1-1.3-.488c-2.143-1.485-1.587-6.557-1.872-8.713-.062-8.511-.109-17.025-.526-25.528-.372-5.744-.913-11.463-1.526-17.182a1.651,1.651,0,1,1,3.269-.385Z" transform="translate(-302.518 -562.177)" fill="#333"/>
            <path id="path3949" d="M684.658,855.332a1.822,1.822,0,0,0-1.615.911,55.047,55.047,0,0,1-8.134,9.635,91.677,91.677,0,0,1-16.269,11.162,90.246,90.246,0,0,1-19.817,7.637,149.017,149.017,0,0,1-20.8,3.877c-6.135.76-12.3,1.147-18.461,1.557-5.033.282-10.057.848-15.086,1.175a36.978,36.978,0,0,1-10.99-.646,27.738,27.738,0,0,1-8.6-3.378,72.286,72.286,0,0,1-8.452-5.845c-.065-.057-.111-.119-.173-.176l-.289,5.023c2.218,1.646,4.568,3.126,6.894,4.612a28.524,28.524,0,0,0,9.836,3.995,44.073,44.073,0,0,0,12.057.852c5.019-.356,10.037-.836,15.057-1.175,6.263-.359,12.519-.643,18.749-1.41a153.412,153.412,0,0,0,21.461-4.024A94.824,94.824,0,0,0,660.83,881a78.172,78.172,0,0,0,16.789-12.278A51.71,51.71,0,0,0,686.07,858.3a1.856,1.856,0,0,0-1.413-2.967Zm-121.733,6.227a2.874,2.874,0,0,0-.462.029,6.809,6.809,0,0,0-1.557.529,13.182,13.182,0,0,0-2.654,1.351l.577,4.641c1.193-1.214,2.418-2.393,3.606-3.613a11.426,11.426,0,0,0,1.125-1.028,12.448,12.448,0,0,0,.836-1.615c.091-.048.034-.166-.058-.117-.468-.04-.945-.154-1.413-.176Z" transform="translate(-291.864 -576.617)" fill="#500"/>
            <path id="path3951" d="M613.842,845.5c5.163-.89,10.252-2.089,15.313-3.451,8.062-2.366,16.107-4.8,24.083-7.448,6.448-2.146,12.851-4.434,19.147-7.006,3.63-1.692,7.317-3.237,11-4.8a9.75,9.75,0,0,1,4.383-.713.071.071,0,1,1,.051.131,21.643,21.643,0,0,1-3.213,2.841c-3.391,2.431-6.765,4.866-10.707,6.324-6.361,2.683-12.846,5.041-19.368,7.286-8.059,2.648-16.171,5.123-24.369,7.292-5.274,1.407-10.655,3-16.156,2.839a1.654,1.654,0,1,1-.167-3.3Z" transform="translate(-311.655 -565.308)" fill="#500"/>
            <path id="path3953" d="M521.4,818.254a1.887,1.887,0,0,0-1.183.382l3.231,1.909A2.135,2.135,0,0,0,521.4,818.254Zm-17.942,47.027c-1.444.077-2.883.138-4.327.206,1.852,6.712,4.086,13.308,6.173,19.945,3.147,10.057.025.245,3.173,9.928.478,1.471.822,3.008,1.413,4.436.537,1.3,1.307,2.463,1.962,3.7a.148.148,0,1,0,.288-.059,39.914,39.914,0,0,0,.144-4.259,42.6,42.6,0,0,0-.808-4.641,100.326,100.326,0,0,0-2.365-10.31c-1.838-6.329-3.852-12.606-5.654-18.946Z" transform="translate(-271.855 -564.007)"/>
            <path id="path3955" d="M555.865,900.018,555.4,908.8c2.738,6.507,5.339,13.071,7.9,19.651,1.147,3.062,2.5,6.047,3.721,9.076.314.777.563,1.579.952,2.321a19.453,19.453,0,0,0,1.24,1.821.226.226,0,1,0,.433-.118,15.972,15.972,0,0,0,.2-2.262,17.051,17.051,0,0,0-.462-2.556,88.476,88.476,0,0,0-2.6-9.605c-2.44-7.051-5.364-13.918-8.365-20.737-.9-2.11-1.772-4.215-2.567-6.374Z" transform="translate(-291.662 -591.816)"/>
            <path id="path3957" d="M507.566,943.115c.919,3.554,2.065,7.036,3.317,10.48a83.762,83.762,0,0,1,2.914,8.9c.68,3.545-1.522,4.867-4.243,6.32a88.264,88.264,0,0,0-13.424,7.267A36.2,36.2,0,0,0,485.583,987.8c-.089.507-1.517,2.4-.865,3.11.127.139.342-.2.529-.191.324.017.644.083.966.124,5.67.274,11.329-.639,16.922-1.477a177.171,177.171,0,0,0,21.657-4.77,92.793,92.793,0,0,0,13.7-5.721,10.584,10.584,0,0,0,4.4-3.65,8.635,8.635,0,0,0,.586-4.744c-.35-3.2-1.34-6.414-1.065-9.667.066-.775.267-1.533.4-2.3a.073.073,0,1,1,.142-.031c.432.648.927,1.257,1.3,1.945,1.576,2.938,1.964,6.43,2.759,9.626.342,2.625.367,5.093-1.3,7.294a15.634,15.634,0,0,1-5.737,4.6,98.631,98.631,0,0,1-14.3,5.646,146.221,146.221,0,0,1-22,5.452c-6.02.922-12.142,1.922-18.243,1.438-1.449-.39-2.526-.434-3.578-1.685-1.737-2.068-.454-4.843.5-6.885a40.848,40.848,0,0,1,11.568-13.161,75.1,75.1,0,0,1,13.7-7.719c.6-.315,1.176-.674,1.779-.983.374-.192.446.59.291-.538a74.774,74.774,0,0,0-2.72-8.492,54.024,54.024,0,0,1-3.03-11.28,1.844,1.844,0,1,1,3.623-.632Z" transform="translate(-265.471 -605.907)"/>
            <path id="path3959" d="M552.458,808.761a15.088,15.088,0,0,0-2.135.47,44.441,44.441,0,0,0-7.673,2.32c-3.026,1.424-6.005,2.938-8.884,4.641l3.692,2.174c2.224-1.165,4.452-2.335,6.721-3.407,2.333-1.1,4.589-2.342,6.923-3.437.649-.3,1.345-.514,1.962-.881a16.558,16.558,0,0,0,1.558-1.2.293.293,0,1,0-.173-.558,14.041,14.041,0,0,0-1.99-.117Z" transform="translate(-284.046 -560.773)"/>
            <path id="path3961" d="M469.134,890.673c-1.566.072-3.136.152-4.7.235.478,1.964.953,3.943,1.442,5.9,1.218,4.978,2.565,9.9,3.836,14.863.291,2.054,1.4,4.288,1.01,6.4a9.146,9.146,0,0,1-2.74,1.7,69.874,69.874,0,0,0-10.413,5.522,22.6,22.6,0,0,0-8.048,9.194c-1.184,3.231-.424,6.462,2.51,8.4a17.907,17.907,0,0,0,1.933.969c5.392,1.988,11.006,1.336,16.5.235a81.861,81.861,0,0,0,16.327-5.757,10.754,10.754,0,0,0,4.24-2.967c.1-.035.039-.182-.058-.147a12.02,12.02,0,0,0-5.106.176c-5.518.9-10.733,3.06-16.211,4.171-4.557.815-9.222,1.478-13.731,0-1.526-.641-2.859-1.109-2.192-3.025a17.693,17.693,0,0,1,6.346-7.226,66.221,66.221,0,0,1,9.98-5.2c2.438-1.234,4.83-2.583,5.365-5.552.191-2.756-.585-5.445-1.212-8.107-1.269-4.954-2.643-9.868-3.865-14.833-.413-1.654-.808-3.308-1.212-4.964Z" transform="translate(-254.204 -588.638)"/>
            <path id="path3963" d="M220.41,711.639a138.21,138.21,0,0,1-14.493,2.131c-9.375.8-18.748,1.563-28.112,2.484-6.782.613-13.543,1.422-20.306,2.211-.927.255-2.16.057-3.012.635-.336.228.545-.191.6-.224,3.329,3.752,7.543,6.533,11.6,9.386,13.018,8.617,26.6,16.3,40.109,24.083,14.642,8.249,28.9,17.158,42.976,26.367,8.305,5.463,16.726,10.733,25.329,15.7,3.814,2.115,7.539,4.413,11.466,6.311q2.576,1.184,5.208,2.239c.613.249,1.224.507,1.83.77-.023-.093-1.153-.078-.451-.121a1.178,1.178,0,0,0,.645-.174c.97.022.947.56,2.322,1.548l-.928-1.125c-.043-.044-.189-.12-.13-.133a10.122,10.122,0,0,1,2.107-.013c2.924-.031,1.424,0,4.763-.136,9.527-.787,18.955-2.487,28.413-3.85,9.763-1.365,19.561-2.456,29.377-3.339,5.754-.569,11.535-.74,17.3-1.218a53.673,53.673,0,0,0,9.18-1.55c2.133-.511,4.251-1.081,6.372-1.643s4.22-1.106,6.352-1.568c1.84-.4,3.673-.824,5.507-1.249,1.419-.328,2.829-.691,4.235-1.072,1.152-.318,2.331-.5,3.5-.741,2.169-.707.729-.856.825,4.621a25.662,25.662,0,0,1-5.655-1.558,32.879,32.879,0,0,1-7.886-4.164c-1.912-1.385-3.638-3.008-5.466-4.5a28.44,28.44,0,0,0-3.789-2.712,7.346,7.346,0,0,1-3.787-3.5c.227-1.313.04-1.347-.771-2.029a.066.066,0,1,1,.08-.1c.831.637.867.843,1.991.147a8.4,8.4,0,0,1,4.739,1.28,28.026,28.026,0,0,1,4.686,2.953c1.723,1.427,3.424,2.883,5.184,4.261a29.413,29.413,0,0,0,6.689,3.6,23.741,23.741,0,0,0,4.465,1.307c.715,5.069,2.17,4.756-.344,5.108-1.08.235-2.175.392-3.243.679-1.432.389-2.843.849-4.267,1.267-1.83.5-3.685.891-5.521,1.365-2.06.563-4.128,1.091-6.178,1.689-2.157.613-4.308,1.255-6.484,1.8a60.916,60.916,0,0,1-10.018,1.729c-5.739.392-11.485.669-17.217,1.16-9.73.906-19.446,1.97-29.131,3.291-9.632,1.321-19.245,2.935-28.948,3.607-1.4.047-7.607.485-8.94-.333a10.217,10.217,0,0,1-1.483-1.385c.664.373,1.243,1.1,2,1.1a.469.469,0,0,0-.352-.176,3.025,3.025,0,0,1-1.205-.194c-.671-.207-1.295-.561-1.958-.794-1.793-.8-3.624-1.5-5.4-2.334-4-1.964-7.873-4.2-11.745-6.416-8.648-5.028-17.261-10.128-25.587-15.7-14.04-9.113-28.192-18.049-42.778-26.238-13.624-7.851-27.4-15.519-40.252-24.656-3.587-2.665-9.444-6.548-11.825-10.519a14.473,14.473,0,0,1-.64-1.378,5.909,5.909,0,0,1-.057-1.525c.526-2.3,3.487-2.343,5.247-2.659,6.777-.9,13.579-1.593,20.376-2.316,9.323-.905,18.653-1.781,27.914-3.225q7.1-1.068,14.14-2.535c.43.8.582,3.2.844,4.275Z" transform="translate(-149.616 -526.29)" fill="#2b0000"/>
            <path id="path3965" d="M152.748,727.905c1.62,5.264,2.131,10.781,2.6,16.25.326,4.671.494,9.352.548,14.034-.04,1.966.589,2.235,2.05,3.395,6.3,4.284,12.969,7.966,19.529,11.808,11.141,6.62,22.353,13.111,33.726,19.309,11.784,6.23,23.913,11.739,35.908,17.526,9.492,4.626,18.712,9.792,27.745,15.281,5.1,3.087,10.168,6.233,15.412,9.061a93.622,93.622,0,0,0,9.964,4.666c2.231.911,4.516,1.675,6.812,2.4.672.213,1.387.288,2.049.533-4.127,3.8-2.212.519-1.166-.739,2.235-1.939,5.216-2.6,7.973-3.417a180.355,180.355,0,0,1,19.146-3.535c10.265-1.579,20.581-2.755,30.917-3.728,9.71-.836,19.419-1.664,29.1-2.781,5.437-.63,10.852-1.432,16.264-2.253.164.4,4.56-1.286,3.01-.512-.653.531-.414,1.322-.745.461a43.425,43.425,0,0,1-2.111-6.477,25.447,25.447,0,0,1-.569-8.3,10.928,10.928,0,0,1,.1-1.9,10.038,10.038,0,0,1,.779-1.711L411.61,806a.065.065,0,1,1,.127-.026l.321,1.267a9.718,9.718,0,0,1,1.209,1.471,10.646,10.646,0,0,1,.538,1.8c.793,2.454,1.543,4.914,2.133,7.43.611,2.154,1.316,4.267,2.134,6.348.439,1.61.5,3.1-.633,4.45-1.6,1.126-3.473,1.34-5.374,1.632-5.465.969-10.971,1.687-16.478,2.36-9.716,1.1-19.453,1.968-29.2,2.745-10.251.964-20.485,2.09-30.667,3.652a177.418,177.418,0,0,0-18.583,3.366,31.314,31.314,0,0,0-5.826,2.025c-.809.239-1.646,2.789-3.037,2.448a13.548,13.548,0,0,1-2.563-.593,69.193,69.193,0,0,1-7.309-2.5c-3.564-1.449-7.074-3.038-10.487-4.828-5.283-2.907-10.458-6.006-15.589-9.185-8.948-5.343-17.967-10.571-27.346-15.1-12.018-5.915-24.236-11.424-36-17.855-11.38-6.288-22.606-12.858-33.769-19.534-6.718-4.009-13.535-7.891-19.985-12.337-2.332-1.954-3.736-3.561-3.674-6.774-.075-4.574-.222-9.149-.564-13.711a76.623,76.623,0,0,0-2.436-15.223,2.221,2.221,0,1,1,4.2-1.414Z" transform="translate(-148.404 -532.705)" fill="#2b0000"/>
            <path id="path3967" d="M366.539,910.532c2.294,6.756,2.657,14,3.154,21.073.739,13.98.339,27.993.088,41.983-.139,10.053-.262,20.106,0,30.156a40.05,40.05,0,0,0,.433,5.6c.118.593.3,1.265.452.967.268-.384-.529-.217-.494-.436.014-.089,2.655-2.573,2.786-2.706,2.5-2.694,5.547-4.738,8.308-7.123,2.022-1.555,2.479-3.423,2.724-5.855-.013-6.35-.906-12.677-1.556-18.986q-1.9-17.476-3.3-35a190.075,190.075,0,0,1-.5-25.693c1.049-2.452.949-1.288.692-3.434a.067.067,0,1,1,.13-.028c.626,2.137.128,1.007,1.748,3.264,1.707,8.4,1.666,17,2.439,25.52.928,11.646,2.057,23.273,3.305,34.888.684,6.635,1.533,13.313,1.22,20-.542,3.968-1.431,5.962-4.825,8.161a52.975,52.975,0,0,0-8.173,6.609c-1.355,1.313-3.315,3.863-5.471,3.574a4.662,4.662,0,0,1-1.161-.5c-1.967-2.37-1.6-5.79-1.936-8.7-.4-10.093-.108-20.2-.119-30.294-.023-13.9.122-27.8-.5-41.685-.474-6.772-1-13.573-2.878-20.122a1.824,1.824,0,1,1,3.428-1.22Z" transform="translate(-223.931 -594.934)" fill="#2b0000"/>
            <path id="path3969" d="M155.524,794.166c.526,7.384.863,14.784,1.172,22.18.452,12.939.973,25.874,1.862,38.791.568,8.132,1.145,16.265,2.1,24.361a67.128,67.128,0,0,0,1.5,8.7c.174.235.012,1.523.368,1.617.136.036-.16-.241-.272-.328-.073-.032-.218-.014-.219-.095,0-.11.14-.169.215-.248.171-.18.357-.346.525-.529a29.63,29.63,0,0,0,2.18-2.79,18.632,18.632,0,0,0,3.061-7.977,39.964,39.964,0,0,0-.1-11.508q-1.666-9.833-2.893-19.73a220.924,220.924,0,0,1-1.672-27.3c.008-.872.033-6.789.169-7.824a32.346,32.346,0,0,1,.789-3.295.184.184,0,1,1,.366-.008c.314,1.079.734,2.131.941,3.236.063.334.716,7.627.725,7.733.907,8.981,1.69,17.976,2.707,26.946.794,6.6,1.783,13.172,2.849,19.734a38.343,38.343,0,0,1-.121,12.828,21.094,21.094,0,0,1-4.292,9.136c-1.088,1.382-2.7,3.818-4.345,4.525a7.3,7.3,0,0,1-1.208.291,6.425,6.425,0,0,1-1.132-.339c-1.052-.541-1.6-2.062-2.164-3.017-1.049-2.988-1.226-6.192-1.7-9.306-.959-8.16-1.8-16.336-2.374-24.535q-1.293-19.429-1.817-38.9c-.326-7.447-.945-14.9-.9-22.356a1.85,1.85,0,1,1,3.689,0Z" transform="translate(-149.611 -555.136)" fill="#2b0000"/>
            <path id="path3971" d="M548.081,879.9c.974,6,1.025,12.115,1.195,18.178.316,10.9-.041,21.795-.745,32.671-.71,9.487-1.576,18.956-2.977,28.365a23.638,23.638,0,0,1-3.858,11.059,26.608,26.608,0,0,1-3.992,4.232c-1.838,1.666-3.051.835-3.767-1.379-.937-3.636-.971-7.443-1.138-11.177-.293-7.724-.733-15.441-1.174-23.157-.4-7.061-.848-14.12-1.267-21.18-.273-4.65-.528-9.3-.687-13.956-.137-3.5-.108-7-.128-10.5-.033-2.276.1-4.547.271-6.815a8.3,8.3,0,0,1,.749-2.35,4.168,4.168,0,0,1,.9-.572.149.149,0,1,1,.3-.016,4,4,0,0,1,.961.529,7.676,7.676,0,0,1,.8,2.413c.168,2.262.294,4.527.273,6.8,0,3.455.076,6.91.157,10.364q.236,6.928.656,13.847c.419,7.069.842,14.137,1.212,21.209.385,7.734.664,15.473.943,23.211.151,3.574.347,7.147.432,10.724-.01.144.093.362-.031.432s-.193-.2-.32-.234a5.2,5.2,0,0,0-1.281-.181c-.1,0-.235.277-.249.175-.036-.257.786-.138.624-.45a20.852,20.852,0,0,0,3.79-3.33c1.892-3.014,1.646-6.828,2.466-10.212a223.171,223.171,0,0,0,2.62-28.028c.325-10.787.657-21.582.338-32.374-.148-5.876-.307-11.76-.987-17.6a1.993,1.993,0,1,1,3.915-.689Z" transform="translate(-282.559 -584.363)" fill="#2b0000"/>
            <path id="path3973" d="M651.314,919.606c-.128,3.992-.146,7.987-.191,11.981.318,2.353-.619,5.86.309,8.08.962-.011,2.057.2,3.092.21,1.2-.1,2.8-.176,3.183-1.56.56-2.864.049-5.834-.172-8.715a37.638,37.638,0,0,1,.151-7.393,13.929,13.929,0,0,1,.223-2.207,13.1,13.1,0,0,1,.852-1.93.07.07,0,1,1,.139,0,13.506,13.506,0,0,1,.972,1.857,15.093,15.093,0,0,1,.389,2.161,50.944,50.944,0,0,1,.966,7.238c.242,3.551.8,7.324-.442,10.74-1.667,2.635-3.233,2.792-6.121,3.218-2.581.208-5.322.282-6.767-2.314-1.01-3.028-.5-6.258-.6-9.4,0-4.03.026-8.06.11-12.09a1.961,1.961,0,1,1,3.908.131Z" transform="translate(-323.993 -597.738)" fill="#4d4d4d"/>
            <path id="path3975" d="M659.915,954.809c4.44,3.58,9.137,6.809,13.843,10.011,4.974,3.416,10.009,6.74,14.944,10.214.858.6,1.71,1.208,2.537,1.85.776.6.125.29-1.118.211l-1.091,1.076c-.017.025-.037.1-.05.075a10.287,10.287,0,0,1-.347-2.442,61.819,61.819,0,0,1-.314-6.662c.01-1.8.081-1.523-1.122-2.472-2.943-2.157-6.042-4.082-9.061-6.125a61.133,61.133,0,0,1-8.177-6.437c-.055-.053-3.458-3.687-3.571-3.808-1.936-2.33-1.115-1.1-2.494-3.67a.067.067,0,1,1,.081-.107c2.831.729,1.451.194,4.126,1.639,4.278,2.723,8.5,5.51,12.578,8.544,3.169,2.208,6.373,4.392,9.33,6.892a6,6,0,0,1,2.018,5.495c.026,2.069.164,4.135.387,6.192.106.8.679,3.281.285,3.972a11.836,11.836,0,0,1-1.21,1.492c-.556,0-1.114.057-1.667.006-1.124-.1-2.435-1.789-3.471-2.09-5.092-3.256-10.1-6.644-15.119-10.016-4.828-3.319-9.75-6.566-14.044-10.6a2.119,2.119,0,1,1,2.726-3.237Z" transform="translate(-327.193 -607.629)" fill="#4d4d4d"/>
            <path id="path3991" d="M615.553,936.274a9.778,9.778,0,0,0,3.813,11.4.071.071,0,1,1-.042.135c-2.3.071-3.605.036-5.419-1.609a13.338,13.338,0,0,1-1.251-1.544c-1.577-2.68-1.249-6.072-.808-9a1.885,1.885,0,1,1,3.708.621Z" transform="translate(-311.4 -603.352)"/>
            <path id="path3977" d="M634.759,933.278c-3.152-2.091-6.364-4.085-9.579-6.072a36.136,36.136,0,0,0-9.028-4.378c-.429-.073-2.685-.838-2.748-.1a7.434,7.434,0,0,0,.1,3.686c1.659,3.364,4.791,5.648,7.622,7.927,2.992,2.6,7.078,4.757,9.308,8.131l.324,1.047a.074.074,0,1,1-.079.124l-1.079.119c-4.052-.8-7.584-3.982-10.928-6.256-3.493-2.807-7.19-5.756-8.921-10.071-.625-2.607-.677-5.332.983-7.573a7.985,7.985,0,0,1,.981-.826c1.7-1.014,3.8-.458,5.571-.054a40.864,40.864,0,0,1,9.885,4.9c3.255,2.037,6.517,4.071,9.674,6.264a1.883,1.883,0,1,1-2.086,3.129Z" transform="translate(-310.65 -598.091)" fill="#4d4d4d"/>
            <path id="path3979" d="M625.784,955.341c-3.766.81-7.606,1.173-11.423,1.643-3.367.43-6.724.94-10.095,1.341-1.607.184-3.21.4-4.827.474a9.446,9.446,0,0,0-2.381.385,6.918,6.918,0,0,0-1,.3,1.575,1.575,0,0,0,1.067-1.117c-.01.36.043.717.04,1.076a7.818,7.818,0,0,1-.092,2.374,42.111,42.111,0,0,0-.374,5.643,18.812,18.812,0,0,0,.454,5.191c.147.684.44.707-.07.234a24.752,24.752,0,0,0,3.092.215,6.161,6.161,0,0,0,3.169-.675,4.775,4.775,0,0,0,1.157-2.3,10.814,10.814,0,0,1,2.689-5.689c3.061-2.464,6.954-3.43,10.648-4.461,4.152-.977,8.25-2.552,12.546-2.607,1.977-.689,1.338,1.145,3.258.153a.066.066,0,1,1,.06.117c-.239.129-.554.167-.716.387-1.934,2.621.878.362-1.723,2.176-3.643,2.444-8.051,3.083-12.177,4.32a41.1,41.1,0,0,0-8.757,3.13c-1.159.922-1.345,2.43-1.735,3.8a8.261,8.261,0,0,1-3.187,4.808,10.2,10.2,0,0,1-5.333,1.148,16.3,16.3,0,0,1-4.74-.459,4.622,4.622,0,0,1-2.421-3.157,22.934,22.934,0,0,1-.6-6.439,46.03,46.03,0,0,1,.424-6.294,13.453,13.453,0,0,0,.319-1.591c-.01-.509.056-1.018.064-1.527a2.56,2.56,0,0,1,1.694-2.228c.478-.119.946-.277,1.429-.378.93-.165,1.869-.276,2.8-.446,1.554-.256,3.127-.371,4.683-.618,3.376-.537,6.723-1.257,10.115-1.688,3.658-.45,7.335-.816,10.942-1.609a2.245,2.245,0,1,1,1,4.372Z" transform="translate(-304.647 -609.119)" fill="#4d4d4d"/>
            <path id="path3981" d="M674.269,940.157A57.006,57.006,0,0,1,685.6,937.3c3.812-.563,7.655-.869,11.5-1.054,2.735-.147,4.283.618,4.86,3.5.122,2.245.12,4.484.376,6.721a33.427,33.427,0,0,0,.751,3.8c.778,2.707-1.663,3.216-3.556,3.387a53.423,53.423,0,0,1-7.108-.255c-3.113-.5-6.438-.707-9.416-1.851-.667-.256-1.277-.643-1.916-.965a.077.077,0,1,1,.007-.154,19.543,19.543,0,0,1,2.02-.768c3.083-.795,6.414-.4,9.55-.466,2.225.052,4.449.214,6.675.187.187,0,.374.01.561.01.079,0,.275-.08.238-.008-.068.133-.279.131-.364.254-.931,1.342-.646.83-.619,1.954,0,.075-.031-.146-.047-.22a27.141,27.141,0,0,1-.939-4.412,62.234,62.234,0,0,1-.36-6.516c0-.067-.055-.2.011-.2.108.007.154.16.248.215.153.088.679.186.513.125a1.412,1.412,0,0,0-.415-.073c-.284-.014-.569.005-.853.009-3.7.216-7.395.5-11.062,1.053a89.141,89.141,0,0,0-10.8,2.217,1.909,1.909,0,1,1-1.186-3.624Z" transform="translate(-333.009 -604.133)" fill="#4d4d4d"/>
            <path id="path3983" d="M692.268,992.29a11.464,11.464,0,0,0-1.861,8.735c.914,3.52,3.328,6.029,6.205,8.018,2.021,1.145,2.876,1.531,3.909-.633,1.282-3.173.76-6.4-.18-9.573A14.159,14.159,0,0,0,699,995.942c-.264-.383-.669-.651-.927-1.038a11.851,11.851,0,0,1-.673-1.365.349.349,0,1,1,.368-.592,6.953,6.953,0,0,1,1.825.244c1.527.648,3.208,3.059,4.057,4.4.293.706.65,1.387.878,2.118a15.428,15.428,0,0,1-.773,10.8,12.253,12.253,0,0,1-1.12,1.614c-2.35,2.432-5.537,1.515-8.057-.035-3.779-2.607-6.835-5.954-7.715-10.675-.067-.774-.2-1.544-.2-2.321a15.815,15.815,0,0,1,3.092-9.014,1.674,1.674,0,1,1,2.511,2.206Z" transform="translate(-337.865 -622.221)"/>
            <path id="path3985" d="M717.525,992.133a36.474,36.474,0,0,1,5.528,10.77c.939,3.193,1.063,6.765-1.706,9.077a11.519,11.519,0,0,1-1.429.876c-2.213.3-1.107.323-3.315-.058a.074.074,0,1,1-.034-.144c1.458-1.238.771-.645,2.063-1.777.488-.385.974-.648,1.208-1.272.622-1.661-.253-3.71-.594-5.3a34.4,34.4,0,0,0-5.181-9.391,2.224,2.224,0,1,1,3.458-2.784Z" transform="translate(-347.309 -622.816)"/>
            <path id="path3989" d="M713.811,953.38a12.616,12.616,0,0,1,6.871,5.489,18.4,18.4,0,0,1,.727,1.81c.672,3.075-.258,6.327-3.231,7.755a11.663,11.663,0,0,1-1.589.5c-1.541-.013-3.468.019-4.83-.9a8.735,8.735,0,0,1-1.253-1.292.106.106,0,1,1,.052-.206,13.875,13.875,0,0,1,1.545-.563c1.043-.244,2.159.017,3.071-.739,1.186-.713,2.118-1.383,1.946-2.945a7.374,7.374,0,0,0-4.729-4.737A2.207,2.207,0,1,1,713.811,953.38Z" transform="translate(-346.226 -609.912)"/>
            <path id="path3993" d="M719.657,950.632c3.919,1.327,6.308,4.586,8.139,8.169.9,2.125,2.072,6.208-.232,7.929a4.969,4.969,0,0,1-1.135.469.156.156,0,1,1-.234-.206,13.806,13.806,0,0,0-1.529-6.42c-1.455-2.458-3.241-4.842-5.935-5.96A2.045,2.045,0,1,1,719.657,950.632Z" transform="translate(-348.564 -609.006)"/>
            <path id="path3749" d="M556.458,573.989a18.637,18.637,0,0,0,4.919.144,15.8,15.8,0,0,0,3.988-1.005,11.668,11.668,0,0,1,1.569-.368.039.039,0,1,1,.065.042,2.344,2.344,0,0,1-.6,1.953,8.716,8.716,0,0,1-4.754,2.1,16.406,16.406,0,0,1-5.77-.224,1.353,1.353,0,1,1,.586-2.64Z" transform="translate(-291.434 -480.501)" fill="#5f0000"/>
            <path id="path3997" d="M537.615,782.6a91.285,91.285,0,0,1-7.274,6.849,51.033,51.033,0,0,1-6.417,4.431c-1.7.944-3.584,1.425-5.288,2.355-.926.221-2.022,1.016-3.013.946a7.341,7.341,0,0,1-1.3-.482.083.083,0,1,1-.071-.151,6.615,6.615,0,0,1,.246-1.291c.412-.956,1.63-1.631,2.309-2.337,1.646-.978,3.225-2.073,4.927-2.952a35.006,35.006,0,0,0,5.649-4.089q3.6-3.136,6.924-6.571a2.337,2.337,0,1,1,3.3,3.292Z" transform="translate(-277.16 -550.48)"/>
            <path id="path3936" d="M496.838,585.662c1.1-1.339,10.262-2.025,9.447,1.114-.693,2.668-5.552,2.936-7.556,2.232a2.838,2.838,0,0,1-1.892-3.346Z" transform="translate(-271.026 -484.514)" fill="#fff"/>
            <path id="path3751" d="M492.379,585.436a16.745,16.745,0,0,1,5.25-1.742,7.325,7.325,0,0,1,6.194,1.622l.508.764a.039.039,0,1,1-.036.069l-.843.035a28.36,28.36,0,0,0-5.48-.313,18.318,18.318,0,0,0-4.78,1.4,1,1,0,1,1-.812-1.835Z" transform="translate(-269.253 -484.194)" fill="#5f0000"/>
            <path id="path3753" d="M495.256,587.5a13.363,13.363,0,0,0,4.55,2.022c1.592.235,3.052-.52,4.544-.958a.039.039,0,1,1,.054.056,7.412,7.412,0,0,1-.316.9,5.125,5.125,0,0,1-4.7,2.618,11.823,11.823,0,0,1-5.754-2.365,1.4,1.4,0,1,1,1.626-2.271Z" transform="translate(-269.692 -485.41)" fill="#5f0000"/>
            <path id="path3916" d="M546.376,568.135c2.02.038,3.677-1.7,5.152-2.937,1.578-1.325,3.8-3.518,6.018-2.772a4.718,4.718,0,0,0-.8-.7,2.894,2.894,0,0,0-2.825-.114c-1.985.721-3.277,2.43-5.159,3.3-1.157.533-3.987.71-4.6,1.875" transform="translate(-287.702 -476.612)" fill="#ebc83f"/>
            <path id="path3918" d="M495.823,579.587c2.616-1.512,5.465,1.907,8.106.561.217-.11,1.368-1.672,1.188-1.671-.093,0-.258.512-.281.553a3.4,3.4,0,0,1-2.358,1.489c-3.272.5-6.306-1.039-9.4.125" transform="translate(-269.724 -482.453)" fill="#ebc83f"/>
            <path id="path3920" d="M512.246,582.63c2.811,3.4,2.784,6.756.367,10.453-.349.534-1.056.71-1.252,1.33-.155.491,1.588.467,2.083.334,2.434-.655,3.376-3.152,3.65-5.454.739-6.207-4.805-8.662-10.074-8.337-.8.049-2.339-.214-2.924.37" transform="translate(-273.603 -483.286)" fill="#ebc83f"/>
            <path id="path3924" d="M512.328,584.455c3.43,1.243,1.269,5.634,2.167,6.809.561.734,3.122.315,3.662-.409.623-.836.184-1.346.141-2.244-.191-4.015-3.9-6.088-5.97-4.156Z" transform="translate(-276.5 -484.237)" fill="#ebc83f"/>
            <path id="path3926" d="M513.824,583.92c.6.754,1.113,1.58,1.664,2.374C518.747,590.988,518.21,584.169,513.824,583.92Z" transform="translate(-277.027 -484.304)" fill="#ebc83f"/>
            <path id="path3940" d="M496.4,591.728c2.083,1.958,4.52,2.871,7.108,1.525,1.243-.647,1.043-1.637,1.38-2.855.033-.118.022-.467.081-.36.209.382-.043,1.167-.1,1.556-1.013,7.5-8.4,6.133-8.475.135Z" transform="translate(-270.895 -486.378)" fill="#ae6139"/>
            <path id="path3942" d="M558.409,577.682c2.588,3.442,9.395,2.916,11.211-1.229.154-.352.311-3.29-.344-3.246-1.435.1-3.053,1.907-4.512,2.327-2.418.7-4.878.548-6.355,2.148Z" transform="translate(-292.72 -480.66)" fill="#ae6139"/>
            <path id="path3995" d="M485.8,582.553c2.959,3.126,5.847,6.324,8.84,9.421q5.9,5.9,11.847,11.749a82.59,82.59,0,0,0,7.1,6.3,16.718,16.718,0,0,1,3.956,3.906,13.963,13.963,0,0,1,1.769,4.533c.312,1.244.659,2.479.87,3.746.116.588.133,1.2.275,1.779a14.605,14.605,0,0,1,.236,2.051,4.924,4.924,0,0,1-1.072,3.264,20.6,20.6,0,0,1-2.33,2.352,33.343,33.343,0,0,1-2.858,2,25.018,25.018,0,0,1-3.575,1.979c-1.345.6-2.717,1.135-4.094,1.652a28.753,28.753,0,0,1-5.433,1.39c-2.176.329-1.026.321-3.447-.1a.167.167,0,1,1-.1-.318c1.685-1.757.779-1.077,2.645-2.137a33.261,33.261,0,0,1,4.952-2.614c1.278-.492,2.541-1.014,3.775-1.613a21.31,21.31,0,0,0,3.062-1.651c.843-.567,1.671-1.158,2.494-1.755a12.191,12.191,0,0,0,1.749-1.612c.246-.277.292-.2.247-.622a4.591,4.591,0,0,0-.205-1.354c-.133-.639-.268-1.277-.343-1.927-.236-1.161-.538-2.3-.819-3.454a10.528,10.528,0,0,0-1.152-3.166,14.831,14.831,0,0,0-3.117-3.146c-2.525-2.106-4.988-4.286-7.317-6.616-3.987-3.946-7.906-7.965-11.688-12.116-2.965-3.254-6.051-6.514-8.295-10.342a1.287,1.287,0,1,1,2.026-1.58Z" transform="translate(-266.339 -483.642)"/>
            <path id="path4479" d="M406.811,721.929a2.458,2.458,0,0,0-.461.088,102.735,102.735,0,0,0-10.356,3.466,70.064,70.064,0,0,0-12.635,7.02c-2.3,1.635-4.828,3.217-6.288,5.728-.751,3.325,3.212,3.157,5.365,3.055,3.319-.158,6.591-.61,9.894-.969-.03.016-.056.042-.086.059-1.962,1.055-4.018,1.9-6.029,2.849a7.5,7.5,0,0,0-3.173,2.556,3.508,3.508,0,0,0-.375,1.968c-.087.378-.094.772-.2,1.146-.409,1.122-.858,2.2-1.183,3.349-.939,2.946,1.57,3.231,3.721,3.055,3.28-.608,6.53-1.35,9.779-2.115,2.684-.624,5.332-1.392,7.99-2.115a14.775,14.775,0,0,0,5.019-2.791c1.724-1.264,3.438-2.583,5.048-3.995a19.774,19.774,0,0,0,2.711-2.732c.049-.064.021-.088.029-.118a.325.325,0,0,0,.2.029,20.02,20.02,0,0,0,2.192,0,1.923,1.923,0,0,0,.635-.441c.091-.015.338-.05.548-.088a.59.59,0,0,1-.115-.147c-.049-.1.077-.245,0-.323s-.269.078-.346,0,.049-.253,0-.352c-.069-.14-.208-.212-.317-.323l-.317-.323c-.44-.448-.373-.378-.317-.323.09.047.151.014-.029-.353-.138-.28-.5-.4-.635-.676-.049-.1.077-.245,0-.323s-.269.078-.346,0,.049-.224,0-.323a.431.431,0,0,0-.029-.059,2.483,2.483,0,0,0-1.211,1.234.83.83,0,0,1,.606-.441c.5.309-.088.66-.462.646-.07,0-.134.022-.2.029a2.95,2.95,0,0,0-.115.294,1.485,1.485,0,0,1,.058-.294,3.274,3.274,0,0,0-1.817.764c-.953.681-1.574,1.787-2.538,2.467-1.607,1.339-3.267,2.6-4.875,3.936a13.84,13.84,0,0,1-4.1,2.614c-2.548.892-5.18,1.524-7.788,2.2a83.962,83.962,0,0,1-9.49,1.733c-.044,0-.433.027-.779.059.391-1,.833-2.007,1.183-3.026a3.084,3.084,0,0,0,0-2.321c-.024-.11-.146.13-.029-.117.378-.785,1.6-.934,2.221-1.41,2.016-.955,4.081-1.8,6.144-2.644a28.887,28.887,0,0,0,4.211-2.174c1.5-1.16,2.094-3.345-.433-3.584-1.518.214-3.025.515-4.558.617-3.438.4-6.867.939-10.327,1.116-.986-.039-2.049-.274-3.029-.264,1.145-1.931,3.491-3.08,5.192-4.347a75.514,75.514,0,0,1,12.663-5.552c3.368-1.169,6.749-2.3,10.182-3.26a1.97,1.97,0,0,0,1.413-1.322c-.17-.192-.463-.3-.577-.529-.049-.1.049-.224,0-.323-.138-.28-.5-.4-.635-.676-.087-.176.087-.5,0-.676-.046-.093-.149-.138-.231-.206a1.985,1.985,0,0,0-.577-.029Zm8.567,16.948c.019,0,.039,0,.058,0,.028-.077.026-.164.058-.235A1.238,1.238,0,0,0,415.378,738.878Zm-36.143.206c-.007.18.034.387-.144.264C379.132,739.254,379.187,739.174,379.234,739.083Zm17.279.911a3.108,3.108,0,0,1,.75.147A.634.634,0,0,1,396.513,739.994Zm-12.775,13.422c0,.051.029.1.029.147,0,.017-.042,0-.058,0,.014-.047.015-.1.029-.147Z" transform="translate(-228.858 -531.241)" fill="#2b1100"/>
            <path id="path3903" d="M621.044,684.258c-3.924,2.091-7.4,4.939-11.092,7.422a209.8,209.8,0,0,1-20.524,12.1,281.619,281.619,0,0,1-30.833,13.721,88.5,88.5,0,0,1-21.535,5.782c-2.345.437-4.764.376-7.114.744.223.138-.08-.017.411-.1a23.44,23.44,0,0,1,.12,2.707c.2,3.661.558,7.312.939,10.958a9.968,9.968,0,0,0,2.239,6.165,7.775,7.775,0,0,0,4.516,2.38,100.433,100.433,0,0,0,12.78,1.28,107.9,107.9,0,0,0,18.808-.539,101.84,101.84,0,0,0,18.565-4.283c5.711-1.927,11-4.877,16.295-7.732,4.948-2.769,10.047-5.241,15.053-7.9,4.055-2.227,8.085-4.509,12.031-6.931a31.375,31.375,0,0,0,7.7-6.488,22.89,22.89,0,0,1,8.043-6.4c1.777-.819.831-.635,2.844-.5a.074.074,0,1,1,.081.123c-.643,1.927-.123,1.12-1.5,2.458-2.283,2.243-4.586,4.475-6.683,6.9a34.089,34.089,0,0,1-8.533,7.247Q627.59,727,621.371,730.34c-5.02,2.6-10.113,5.047-15.11,7.693-5.483,2.955-10.984,5.951-16.921,7.867a102.083,102.083,0,0,1-19.22,4.4,112.111,112.111,0,0,1-19.356.618,70.983,70.983,0,0,1-13.42-1.65,12.971,12.971,0,0,1-5.929-3.559,13.337,13.337,0,0,1-2.978-7.8,96.05,96.05,0,0,1-.575-11.266c.061-1.8-.28-4.4,1.863-5,2.336-.128,4.7.094,7.011-.439a128.559,128.559,0,0,0,20.958-6.075c10.361-4.124,20.406-9,30.383-14.008A186.823,186.823,0,0,0,608.3,689.159a92.882,92.882,0,0,1,11.787-7.178,1.236,1.236,0,1,1,.953,2.278Z" transform="translate(-281.963 -517.614)" fill="#101010"/>
            <path id="path3915" d="M290.351,644.871c-4.747-1.177-9.323-2.967-13.946-4.556a203.536,203.536,0,0,0-23.208-6.762c-4.972-1.134-10.033-1.892-14.916-3.4a7.73,7.73,0,0,1-3.841-2.282c-.643-1.016-.977-1.273,2.09-1.951.368-.081.49.586.684.915A25.264,25.264,0,0,1,239,631.567a222.778,222.778,0,0,1,5.942,23.61c1.507,7.787,2.948,15.586,4.512,23.362.694,3.455,1.219,6.946,2.035,10.374a4.007,4.007,0,0,0,1.389,2.442c3.533,2.626,7.423,4.732,11.161,7.041a259.326,259.326,0,0,1,21.82,15.581c4.877,3.776,9.493,7.877,14.022,12.073a49.678,49.678,0,0,1,5.442,5.725,36.374,36.374,0,0,0,3.977,3.9,40.21,40.21,0,0,0,5.426,4.125c2.353,1.425,4.655,2.917,6.858,4.571.328.621,1.225.7,1.6,1.278.267.409.273.95.507,1.379a.066.066,0,1,1-.055.119,7.635,7.635,0,0,1-1.487.293c-.685-.055-1.2-.824-1.894-.828a65.026,65.026,0,0,1-7.212-4.129,44.154,44.154,0,0,1-5.841-4.37,35.984,35.984,0,0,1-4.272-4.26,74,74,0,0,0-5.1-5.546c-4.4-4.2-9.035-8.137-13.79-11.915a250.4,250.4,0,0,0-21.582-15.36,101.342,101.342,0,0,1-11.5-7.659,7.242,7.242,0,0,1-2.157-3.79c-.844-3.453-1.594-6.93-2.383-10.4-1.644-7.76-3.054-15.568-4.513-23.365a225.838,225.838,0,0,0-5.769-23.281c-.433-1.352-1.108-2.83-1.417-4.227-.012-.053.04-.1.076-.144.6-.669,1.258-1.281,1.823-1.979.037-.045-.074-.089-.111-.134.876.242,1.668,1.081,2.63,1.164,4.831,1.459,9.847,2.094,14.752,3.243a232.219,232.219,0,0,1,23.509,6.891c4.518,1.617,9.014,3.321,13.614,4.685a1.457,1.457,0,1,1-.67,2.833Z" transform="translate(-178.536 -498.587)" fill="#1a1a1a"/>
          </g>
        </g>
      </g>
      <g id="layer1-2" data-name="layer1" transform="translate(-136.077 449.634)">
        <g id="g5910" transform="translate(136.077 -349.399)">
          <g id="g5893" transform="translate(0 0)">
            <path id="path10961" d="M936.129,881.441c0,3.674-19.893,6.653-44.433,6.653s-44.433-2.979-44.433-6.653,19.893-6.653,44.433-6.653S936.129,877.766,936.129,881.441Z" transform="translate(-809.258 -717.829)"/>
            <g id="g5878">
              <path id="path3781" d="M280.288,328.844c-10.339-4.949-11.764,13.216-21.649,3.331-13.642-13.642-11.578-.251-21.649-3.608-9.126-3.042-2.561-15.158-7.216-17.486-4.291-2.145-9.424,3.608-9.159,3.608,4.551,0,6.939-4.291,6.939,2.5,0,3.123-2.954,7.365-.833,10.547,7.406,11.109,15.073-1.267,20.539.555,3.864,1.288,6.289,7.308,9.992,9.159,3.661,1.831,14.357,1.538,16.375-2.5.549-1.1,1.21-3.8,2.5-4.441,1.986-.993,3.277.107,4.163-1.665Z" transform="translate(-214.438 -310.601)" fill="#1a1a1a" stroke="#000" stroke-width="1.957"/>
              <path id="path3783" d="M266.208,364.767c-8.972-7.294-15.293,7.67-23.315,5-.935-.312-3.312-12.873-10.547-8.049-4.3,2.868-9.115,5.566-14.988,3.608-5.024-1.675-2.611-8.8-6.106-10.547-3.4-1.7-5.959,6.253-6.106,6.106-.381-.381.905-.591,1.388-.833,7.51-3.755,7.775,13.229,16.653,10.27,3.8-1.266,9.363-7.241,13.6-5.829,5.179,1.726,7.265,10.8,14.988,6.939,3.578-1.789,9.516-8.846,14.433-6.661,2.149.955.909,1.388,2.776,1.388" transform="translate(-205.077 -337.09)" fill="#1a1a1a" stroke="#000" stroke-width="1.957"/>
              <path id="path3011" d="M375.3,512.386c-4.919,4.282-10.877,7.2-14.988,12.49-19.988,25.7,41.99,49.225,47.74,26.367,4.554-18.1-5.551-14.8-5.551-21.371,0-7.12-1.674-14.853-8.6-18.319-9.326-4.663-16.53,1.659-18.6.833Z" transform="translate(-296.282 -430.71)" fill="#111"/>
              <path id="path3001" d="M383.767,559.97c1.8,10.011,4.481,31.08,1.665,46.612-.405,2.236-2.8,10.907-.555,12.212,5.931,3.391,7.268,5.291,6.106,6.384-3.608,2.781-14.2-1.571-18.6-3.886-8.377-4.406,5.575-9.5-11.935-13.878-8.648-2.162-21.23-1.394-25.535,7.216-2.043,5.072-2.625,7.49-8.049,8.327-2.076.41-14.912,4.6-16.376.833-1.51-3.887,6.15-1.8,8.049-7.494,1.115-3.344-.024-7.694-.278-11.1-.369-4.971-.662-31.025,3.15-44.714" transform="translate(-268.513 -460.944)" fill="#111" stroke="#000" stroke-width="2.936"/>
              <path id="path2985" d="M352.306,412.164c8.437,2.109,9.876,3.074,18.455,5.563,6.044,1.754,11.8,3.068,17.85,1.621,2.022-.484,7.379-2,6.936-9.334-.468-7.75-4.736-21-10.905-25.189-7.429-5.046-6.015-10.159-5.51-21.34.392-8.677.858-18.394-2.539-25.011-7.7-15.005-39.738-15.4-46.072,3.608-2.4,7.194-1.7,17.641.223,27.554,1.367,7.052,4.785,9.022-.223,15.467-7.512,8.752-8.832,11.005-11.824,17.361-2.286,4.72-2.94,14.29,6.772,17.527,1.987.662,7.81.82,10.02.083,5.2-.555,23.492-14.911,41.537-12.809" transform="translate(-272.717 -320.787)" fill="#111" stroke="#000" stroke-width="2.936"/>
              <path id="path3040" d="M361.92,510.963a21.352,21.352,0,0,0,2.429-3.594" transform="translate(-299.636 -429.231)" fill="none" stroke="#000" stroke-linecap="round" stroke-linejoin="round" stroke-width="2.936"/>
              <path id="path2989" d="M339.97,513.08c6.882-5.869,42.145-12.87,50.166-5.969" transform="translate(-286.403 -427.349)" fill="none" stroke="#000" stroke-linecap="round" stroke-linejoin="round" stroke-width="2.936"/>
              <path id="path2987" d="M447.69,515.079c5.494.718,11.3,2.452,11.416,1.469.254-2.063-4.079-7.729-5.593-9.243" transform="translate(-351.347 -429.193)" fill="none" stroke="#000" stroke-linecap="round" stroke-linejoin="round" stroke-width="2.936"/>
              <path id="path3003" d="M361.863,403.765c16.861,5.154,22.323,4.847,36.861-2.172,4.576-.232,2.86,7.462-2.037,11.228-9.872,3.459-13.079-1.247-16.86-1.054-4.773.244-8.63,7.75-15.868,2.108-6.251-4.874-5.789-10.555-2.1-10.11Z" transform="translate(-297.971 -365.457)" fill="#d4aa00" stroke="#000" stroke-width="1.957"/>
              <path id="path3010" d="M432.21,420.4c3.858,6.194,7.534.934,6.15-1.3A16.14,16.14,0,0,1,432.21,420.4Z" transform="translate(-342.014 -376.014)" fill="#a40"/>
              <path id="path3007" d="M431.81,419.015C442.439,412.464,438.153,424.368,431.81,419.015Z" transform="translate(-341.773 -374.742)" fill="#fff" stroke="#000" stroke-width="0.979"/>
              <path id="path3008" d="M373.754,418.87c-2,7.372,5.833,3.605,6.127,1.623C379.9,420.379,374.762,419.273,373.754,418.87Z" transform="translate(-306.574 -375.876)" fill="#a40"/>
              <path id="path3009" d="M380.207,419.544C369.578,412.994,373.864,424.9,380.207,419.544Z" transform="translate(-306.765 -375.061)" fill="#fff" stroke="#000" stroke-width="0.979"/>
            </g>
          </g>
        </g>
      </g>
      <g id="Ellipse_6" data-name="Ellipse 6" transform="translate(70)" fill="#fff" stroke="#707070" stroke-width="1">
        <ellipse cx="85.5" cy="62" rx="85.5" ry="62" stroke="none"/>
        <ellipse cx="85.5" cy="62" rx="85" ry="61.5" fill="none"/>
      </g>
      <text id="Our_ninjas_are_giving_their_best" data-name="Our ninjas are giving their best" transform="translate(94 17)" font-size="20" font-family="Poppins-Regular, Poppins"><tspan x="11.12" y="21">Our ninjas </tspan><tspan x="11.69" y="51">are giving </tspan><tspan x="14.58" y="81">their best</tspan></text>
    </g>
    <g id="Component_29_1" data-name="Component 29 – 1" transform="translate(268.234)">
      <path id="Path_18" data-name="Path 18" d="M638.683,2364.653s-11.326-14.281,8.864-29.546,38.41,3.939,38.41,3.939,6.278-26.345,24.622-29.053,32.5,21.175,32.5,21.175,28.807-23.883,47.273-21.175S816.943,2342,816.943,2342s39.148-16.5,52.2-4.924,0,51.213,0,51.213,26.591,26.591,25.114,42.841c-1.2,13.211-20.955,19.588-28.6,21.59-1.385.363-2.418.57-2.418.57s-8.987,30.654-25.606,40.872-40.872,0-40.872,0-26.345,26.591-47.273,27.576-36.44-23.637-36.44-23.637-28.438,15.019-43.334,9.849-16.25-30.531-16.25-30.531-26.591,6.4-35.455-2.955,0-34.47,0-34.47-20.805-7.14-22.652-17.728,19.2-27.576,19.2-27.576-14.9-18.835-7.879-27.084S638.683,2364.653,638.683,2364.653Z" transform="translate(-595.234 -2309.779)" fill="none" stroke="#707070" stroke-width="1"/>
      <g id="Ellipse_2" data-name="Ellipse 2" transform="translate(24.766 194.221)" fill="#fff" stroke="#707070" stroke-width="1">
        <ellipse cx="6" cy="5.5" rx="6" ry="5.5" stroke="none"/>
        <ellipse cx="6" cy="5.5" rx="5.5" ry="5" fill="none"/>
      </g>
      <g id="Ellipse_4" data-name="Ellipse 4" transform="translate(16.766 208.221)" fill="#fff" stroke="#707070" stroke-width="1">
        <circle cx="3.5" cy="3.5" r="3.5" stroke="none"/>
        <circle cx="3.5" cy="3.5" r="3" fill="none"/>
      </g>
      <g id="Ellipse_5" data-name="Ellipse 5" transform="translate(38.766 175.221)" fill="#fff" stroke="#707070" stroke-width="1">
        <ellipse cx="9" cy="7.5" rx="9" ry="7.5" stroke="none"/>
        <ellipse cx="9" cy="7.5" rx="8.5" ry="7" fill="none"/>
      </g>
      <text id="I_will_finish_this_work_quickly._Then_I_will_go_assassinate_Mr._." data-name="I will finish this work quickly. Then I will go assassinate Mr.*****." transform="translate(56.766 61.221)" font-size="20" font-family="Poppins-Regular, Poppins"><tspan x="0" y="21">I will finish this work </tspan><tspan x="0" y="51">quickly. Then I will go </tspan><tspan x="0" y="81">assassinate Mr.*****.</tspan></text>
    </g>
  </g>
</svg>
